<svg viewBox="0 0 303.577 348.878" xmlns="http://www.w3.org/2000/svg" xmlns:xlink="http://www.w3.org/1999/xlink" width="303.577026" height="348.878357" fill="none" customFrame="#000000">
	<g id="aboutUs">
		<g id="Сочетание 3">
			<path id="Форма 72" d="M95.4973 80.1151C93.106 84.7365 89.9096 88.8944 86.0582 92.3934C82.2068 95.8925 77.7623 98.6766 72.9333 100.615C67.201 102.703 61.1689 103.851 55.0703 104.015C48.3913 104.315 41.5703 103.887 35.2993 101.605C26.8793 98.5561 19.8863 92.3201 14.6433 85.0511C9.40033 77.7821 5.79028 69.4801 2.65332 61.1101C1.00134 56.7531 -0.572693 52.1101 0.204346 47.5101C5.27033 46.3591 10.8173 44.6671 13.4343 40.1721C15.6673 36.3161 15.0473 31.6931 13.7593 27.2871C13.3953 26.0381 12.9724 24.7981 12.5493 23.6081C11.5653 20.7561 8.1723 15.3361 10.5333 12.8961C12.0333 11.3521 18.3433 10.5651 20.5173 9.56109C27.2174 6.47211 33.3933 2.00711 40.7503 0.541107C47.1143 -0.727905 53.6853 0.462097 60.0393 1.78012C60.882 1.9028 61.6915 2.19391 62.4193 2.63611C63.2492 3.33575 63.8631 4.2569 64.1893 5.29211C65.9993 9.69912 67.0614 14.5681 68.5173 19.1611C70.0324 23.9711 71.9793 28.4861 75.6293 31.8991C78.4724 34.5651 82.0913 36.2371 85.6294 37.8601L94.3444 41.8531C95.8945 42.4338 97.3004 43.3433 98.4654 44.5191C99.6049 46.0857 100.286 47.9385 100.432 49.8701C101.994 60.2204 100.267 70.7998 95.4943 80.1161L95.4973 80.1151Z" fill="rgb(230,236,185)" fill-rule="nonzero" transform="matrix(-1,0,0,1,194.703,80.2278)" />
			<circle id="Эллипс 4" cx="47.8610001" cy="47.8610001" r="47.8610001" fill="rgb(230,236,185)" transform="matrix(-1,0,0,1,203.686,22.0299)" />
			<path id="Форма 73" d="M232.669 95.1666L228.951 72.6416C227.072 61.3416 225.135 49.8216 219.882 39.6416C216.429 32.9726 168.065 6.67059 163.442 3.77859C158.819 0.886597 153.065 -1.1394 147.95 0.709595C147.124 9.50958 146.25 18.5096 142.51 26.5296C139.256 33.5108 133.99 39.3602 127.388 43.3268C120.785 47.2934 113.148 49.1961 105.456 48.7907C97.7648 48.3853 90.3699 45.6902 84.2211 41.0516C75.4571 34.4516 69.8411 24.2706 67.2211 13.6186C66.5821 11.0186 65.8541 8.04156 63.4641 6.85156C60.8771 5.55157 57.764 7.12656 55.595 9.03555C51.611 12.5666 48.444 17.6226 43.27 18.8126C41.401 19.2456 5.94202 35.5045 3.935 38.3275C1.92798 41.1505 0.984009 44.6425 0 48.0276C10.751 71.9686 20.587 95.9395 31.338 119.881C31.8417 120.783 32.1089 121.798 32.115 122.832C31.8993 123.904 31.4417 124.913 30.777 125.783C25.505 134.251 25.672 144.905 26.252 154.858C26.8319 164.812 27.541 175.327 23.095 184.249C21.8849 186.698 15.495 214.682 17.0649 220.643L239.365 220.643C235.126 208.987 236.739 185.597 237.624 173.223C238.244 164.567 236.64 155.923 235.952 147.265C234.509 129.584 235.591 112.813 232.669 95.1666Z" fill="rgb(241,186,10)" fill-rule="nonzero" transform="matrix(-1,0,0,1,253.668,117.75)" />
			<path id="Форма 79" d="M88.362 39.857C87.172 59.392 72.84 75.533 67.381 94.32C66.024 99.02 65.207 103.9 63.26 108.376C59.326 117.376 51.23 123.907 42.604 128.511C39.4567 130.331 36.0139 131.583 32.433 132.211C28.4968 132.67 24.5142 131.919 21.0155 130.058C17.5168 128.197 14.6682 125.315 12.849 121.794C10.596 117.22 10.282 111.958 8.914 107.04C7.38898 101.365 4.53699 96.132 2.67798 90.555C-0.744995 80.296 -0.676025 69.063 1.69397 58.519C3.94 49.3492 7.49445 40.5507 12.248 32.394C12.937 31.184 13.635 29.984 14.348 28.794C16.3768 25.3533 18.6549 22.0659 21.1639 18.958C27.064 11.846 34.6489 6.37701 42.1539 0.986999C42.7269 0.514709 43.3994 0.178284 44.1209 0.00299072L44.2389 0.00299072C45.0853 -0.0270386 45.9242 0.1698 46.6689 0.572998C57.0771 5.07294 67.067 10.4843 76.5219 16.744C79.9059 18.996 85.2469 21.515 87.0219 25.351C88.7969 29.187 88.618 35.687 88.362 39.857Z" fill="rgb(230,236,185)" fill-rule="nonzero" transform="matrix(-1,0,0,1,303.577,216.536)" />
			<path id="Форма 80" d="M19.4163 6.28067C18.4581 7.28369 17.7148 8.47202 17.2323 9.77268C9.28131 27.6915 4.58496 46.8832 3.36328 66.4487C3.38477 67.4026 3.16498 68.3464 2.7243 69.1927C2.28992 69.7561 1.80634 70.2798 1.2793 70.7577C0.63916 71.5166 0.21936 72.4365 0.0655518 73.4174C-0.0882568 74.3982 0.0297852 75.4025 0.40686 76.321C0.783935 77.2394 1.40564 78.0369 2.20428 78.6267C3.82727 75.5677 7.71228 74.5747 11.1653 74.3087C27.7003 73.0007 43.8512 80.6927 60.4343 80.1087C59.2643 76.0657 57.5823 72.1807 56.6273 68.0887C52.4073 49.9217 62.9272 30.1407 56.4792 12.6417C55.1902 9.14167 53.0362 5.69766 49.6432 4.16266C48.2382 3.59503 46.7678 3.20502 45.2662 3.00165C41.0762 2.24466 32.7352 -0.991364 28.6822 0.301636C27.1822 0.783631 26.5972 2.19064 25.3572 3.03565C23.5173 4.25467 21.0193 4.67566 19.4163 6.28067Z" fill="rgb(241,186,10)" fill-rule="nonzero" transform="matrix(-1,0,0,1,273.68,160.219)" />
			<path id="Форма 81" d="M47.3348 111.872C44.9802 116.112 41.5557 119.66 37.4025 122.165C33.2493 124.669 28.5124 126.041 23.6638 126.144C21.0641 126.214 18.48 125.72 16.0888 124.698C10.0377 121.924 6.61975 115.059 5.35175 108.311C4.08374 101.563 4.48078 94.599 3.58075 87.7829C2.86078 82.3529 1.32672 77.0829 0.531738 71.6609C-1.41925 58.2539 2.42572 45.0149 5.16175 31.6669C5.82477 30.4569 6.49677 29.2569 7.18775 28.0669C9.13544 24.6346 11.3285 21.3474 13.7498 18.2309C19.4308 11.1189 26.7308 5.65088 33.9558 0.259888L26.3807 0.259888C26.5617 0.121033 26.7769 0.0340576 27.0034 0.00817871C27.2299 -0.0177612 27.4592 0.0184937 27.6668 0.112915C27.8773 0.211365 28.0587 0.362671 28.1933 0.552185C28.3279 0.741638 28.4111 0.962769 28.4348 1.19391C29.1827 8.07892 38.5288 14.9649 40.5638 21.6529C41.8228 25.7639 43.3378 29.7969 44.3508 33.9879C45.1499 37.5595 45.7567 41.1714 46.1688 44.8079C47.5135 54.9919 48.8518 65.1559 50.1838 75.2999C51.8608 87.682 53.3008 101.072 47.3348 111.872Z" opacity="0.0460000001" fill="rgb(0,0,0)" fill-rule="nonzero" transform="matrix(-1,0,0,1,296.66,217.273)" />
			<path id="Форма 82" d="M39.5998 105.497L49.0918 75.7234C50.5078 71.2674 51.9438 66.7434 52.1118 62.0604C52.2798 57.3774 51.0498 52.4704 47.7738 49.1254C45.1178 46.4254 41.4398 45.0254 38.2918 42.9094C30.4228 37.6094 26.4918 28.3224 22.3867 19.7744C18.2817 11.2264 15.0787 3.63238 6.12775 0.465393C4.06177 -0.262604 1.20972 -0.321594 0.284729 1.6554C-0.0351563 2.47729 -0.0869141 3.3793 0.136719 4.23239C0.70459 8.09762 2.35523 11.7231 4.89771 14.6894C9.64869 20.8374 13.6227 28.3614 12.4817 36.0534C11.1247 45.1614 2.94068 52.2244 1.95667 61.3814C1.52368 65.4144 2.55664 69.4574 2.54669 73.5194C2.54669 76.0374 2.13367 78.6044 2.6947 81.0634C3.27655 82.9647 3.96943 84.8303 4.76972 86.6504C5.64594 89.5912 6.10309 92.641 6.12769 95.7094L8.20271 134.424C9.32368 155.365 -2.03632 175.736 1.0907 196.392C1.91669 201.812 3.51068 207.084 4.25769 212.514C5.2417 219.331 4.77869 226.285 6.09669 233.042C7.41468 239.799 11.0147 246.655 17.2507 249.429C19.7445 250.454 22.4247 250.946 25.1197 250.875C30.0988 250.807 34.9765 249.458 39.2833 246.959C43.59 244.459 47.1808 240.893 49.7098 236.603C55.9098 225.783 54.4098 212.416 52.7198 200.082L48.5498 169.597C48.1216 165.958 47.4913 162.346 46.6618 158.777C45.6188 154.587 44.0458 150.554 42.7268 146.442C38.5088 132.997 35.3498 118.858 39.5998 105.497Z" fill="rgb(230,236,185)" fill-rule="nonzero" transform="matrix(-1,0,0,1,300.111,94.4926)" />
			<rect id="Прямоугольник 9" width="219.347000" height="139.673996" x="0.000000" y="0.000000" rx="10.000000" fill="rgb(55,43,43)" transform="matrix(-1,0,0,1,219.347,202.304)" />
			<circle id="Эллипс 5" cx="5.90199995" cy="5.90199995" r="5.90199995" fill="rgb(241,186,10)" transform="matrix(-1,0,0,1,116.067,266.24)" />
			<path id="Форма 83" d="M77.031 67.4999L69.131 65.5249C69.131 65.5249 63.205 31.9489 49.379 35.8999C35.553 39.8509 0 43.7999 0 27.9999C0 12.1999 33.938 2.79992 53.329 0.346919C72.72 -2.10608 106.658 8.24692 104.683 37.8749C103.683 52.8369 96.683 80.2299 96.683 80.2299L84.866 94.6799L88.933 78.7569L77.031 67.4999Z" fill="rgb(9,8,20)" fill-rule="nonzero" transform="matrix(-0.984808,0.173648,0.173648,0.984808,194.839,0)" />
		</g>
	</g>
</svg>
