<svg viewBox="0 0 247.652 329.406" xmlns="http://www.w3.org/2000/svg" xmlns:xlink="http://www.w3.org/1999/xlink" width="247.651611" height="329.405731" fill="none" customFrame="#000000">
	<rect id="cta-2" width="247.651611" height="329.405731" x="0.000000" y="0.000000" />
	<path id="Форма 44" d="M20.1979 26.9305L23.1902 8.22877L2.99229 0L0 28.4266L20.1979 26.9305Z" fill="rgb(160,97,106)" fill-rule="nonzero" transform="matrix(0.995932,-0.0901066,0.0901066,0.995932,39.814,47.2297)" />
	<path id="uuid-21077125-a9ce-4d78-89d9-fa9488c9c891-2423" d="M36.3634 37.6608C43.1952 42.129 51.0384 42.2259 53.8813 37.8776C56.7242 33.5293 53.4902 26.3837 46.6554 21.9148C43.9497 20.0922 40.8468 18.9441 37.6064 18.5665L8.42077 0L0 13.8817L29.6659 30.7112C31.3113 33.5294 33.6079 35.9124 36.3634 37.6608L36.3634 37.6608Z" fill="rgb(160,97,106)" fill-rule="nonzero" transform="matrix(0.995932,-0.0901066,0.0901066,0.995932,87.7285,152.573)" />
	<path id="Форма 45" d="M16.2131 0.0602304L16.2131 0.0602304C5.51449 0.938477 -1.92978 11.0834 0.442189 21.5527L12.6195 75.301L68.6648 108.066L75.5627 90.5338L37.3369 62.08L35.2905 16.8545C34.8384 6.86228 26.182 -0.75811 16.2131 0.0602304Z" fill="rgb(230,230,230)" fill-rule="nonzero" transform="matrix(0.995932,-0.0901066,0.0901066,0.995932,35.6394,77.7827)" />
	<path id="Форма 46" d="M0 4.78608L11.8683 22.5392L14.0775 28.1008L20.585 32.2161L45.2706 20.7571L39.9226 9.04602L23.8967 10.1038L17.3109 0L0 4.78608Z" fill="rgb(160,97,106)" fill-rule="nonzero" transform="matrix(0.995932,-0.0901066,0.0901066,0.995932,173.827,252.152)" />
	<path id="Форма 47" d="M28.7208 12.9847L28.4746 15.4319L0 23.0887C0 23.0887 7.60335 33.2072 8.8748 35.3126C10.1462 37.4181 50.1495 13.2613 55.6605 8.78405C61.1715 4.30684 55.9328 0 55.9328 0L23.834 3.2579L28.7208 12.9847L28.7208 12.9847Z" fill="rgb(55,43,43)" fill-rule="nonzero" transform="matrix(0.995932,-0.0901066,0.0901066,0.995932,186.512,255.602)" />
	<path id="Форма 48" d="M3.70504 10.1443L0.543518 17.617C0.543518 17.617 -6.35435 38.8854 28.9973 46.3581C64.3489 53.8308 82.7433 50.6693 82.7433 50.6693L143.675 123.672L159.195 110.163L110.65 36.5641C107.461 31.7283 102.786 28.0601 97.3307 26.112L24.2042 0L3.70509 10.1443L3.70504 10.1443L3.70504 10.1443L3.70504 10.1443Z" fill="rgb(55,43,43)" fill-rule="nonzero" transform="matrix(0.995932,-0.0901066,0.0901066,0.995932,29.9584,160.282)" />
	<path id="Форма 49" d="M0 0.985447L7.81045 20.8607L8.78314 26.7655L14.2637 32.1735L40.8248 26.2408L38.0964 13.6587L22.2135 11.2757L17.9332 0L0 0.985447Z" fill="rgb(160,97,106)" fill-rule="nonzero" transform="matrix(0.995932,-0.0901066,0.0901066,0.995932,138.956,290.168)" />
	<path id="Форма 50" d="M30.2146 10.545L29.4524 12.8835L0 14.2936C0 14.2936 5.27132 25.8004 6.06465 28.1285C6.85798 30.4567 51.0917 15.3838 57.4305 12.1844C63.7694 8.98508 59.5693 3.66039 59.5693 3.66039L27.5138 0L30.2146 10.545L30.2146 10.545Z" fill="rgb(55,43,43)" fill-rule="nonzero" transform="matrix(0.995932,-0.0901066,0.0901066,0.995932,147.14,301.149)" />
	<path id="Форма 51" d="M6.54315 2.35758e-05L1.86113 6.62688C1.86113 6.62688 -9.41252 25.9357 23.5332 40.7735C56.4789 55.6112 75.1244 56.444 75.1244 56.444L119.091 140.758L137.134 130.869L102.184 40.2857L68.1159 9.02339L6.5431 0L6.54315 2.35758e-05L6.54315 3.53637e-05L6.54315 2.35758e-05Z" fill="rgb(55,43,43)" fill-rule="nonzero" transform="matrix(0.995932,-0.0901066,0.0901066,0.995932,11.2655,172)" />
	<path id="Форма 55" d="M66.1047 8.62234L39.9502 0L15.3103 26.9681C7.64919 35.3531 3.19151 46.1719 2.72193 57.52L0 123.3L65.2425 111.516C65.2425 111.516 66.1047 8.62234 66.1047 8.62235L66.1047 8.62234Z" fill="rgb(230,230,230)" fill-rule="nonzero" transform="matrix(0.995932,-0.0901066,0.0901066,0.995932,0,63.8887)" />
	<path id="uuid-3e7f3ef6-3c11-46f0-85a3-6c3f88fcc01a-2424" d="M36.3635 37.6608C43.1953 42.129 51.0385 42.2259 53.8814 37.8776C56.7243 33.5293 53.4904 26.3837 46.6555 21.9148C43.9498 20.0922 40.8469 18.9441 37.6065 18.5665L8.42078 0L0 13.8817L29.666 30.7112C31.3114 33.5294 33.608 35.9124 36.3635 37.6608L36.3635 37.6608Z" fill="rgb(160,97,106)" fill-rule="nonzero" transform="matrix(0.995932,-0.0901066,0.0901066,0.995932,65.2732,159.708)" />
	<path id="Форма 56" d="M16.2131 0.0602362L16.2131 0.0602362C5.51449 0.938483 -1.92978 11.0834 0.442189 21.5527L12.6195 75.3009L68.6649 108.066L75.5627 90.5337L37.337 62.08L35.2905 16.8545C34.8384 6.86229 26.182 -0.758104 16.2131 0.0602303L16.2131 0.060248L16.2131 0.0602303L16.2131 0.0602362Z" fill="rgb(230,230,230)" fill-rule="nonzero" transform="matrix(0.995932,-0.0901066,0.0901066,0.995932,13.1838,84.9178)" />
	<ellipse id="Эллипс 2" rx="23.100586" ry="23.100554" cx="23.1005859" cy="23.1005535" fill="rgb(160,97,106)" transform="matrix(0.995932,-0.0901066,0.0901066,0.995932,28.397,18.065)" />
	<path id="Форма 57" d="M53.8046 6.67675C58.8928 8.46511 61.8044 9.48844 64.4715 12.0578C68.9764 16.3979 69.7199 22.1977 70.4107 27.5867C70.9512 31.8026 71.65 37.2534 69.1812 43.4811C68.3387 45.6063 64.252 55.0752 56.4296 56.2719C54.8934 56.5068 51.2867 56.5686 52.3263 55.8011C61.9474 48.6981 66.0534 44.41 65.7168 33.463C65.5076 26.6611 55.114 19.3172 48.9424 17.997C46.3426 17.441 42.8815 17.949 40.3995 19.9865C35.2126 24.2447 35.4339 41.8534 29.9644 45.5344C27.7151 47.0482 29.2139 36.3922 27.6289 38.1202C24.5017 41.5299 26.5077 46.7515 27.0696 48.7401C29.7352 58.1725 34.7608 59.0957 37.3644 67.1505C40.1753 75.8468 36.6376 84.0343 35.7986 85.9758C34.3393 89.3533 31.8347 95.1497 26.1125 97.9305C18.8492 101.46 13.1242 96.8638 9.74739 100.804C7.85967 103.007 8.88079 105.34 5.47149 112.192C4.35852 114.428 3.80208 115.547 3.30944 115.507C0.978115 115.319 -2.79643 96.6581 3.30831 79.2789C5.87034 71.9855 8.38032 64.8398 15.1083 59.2521C18.6654 56.298 21.6487 55.235 22.4979 51.7852C23.711 46.8568 18.6736 44.7532 17.6638 36.977C16.9733 31.6588 16.4888 24.0527 18.3666 19.1776C20.1397 14.5738 21.6789 10.5774 25.708 6.95394C26.6756 6.08361 34.487 0.167722 42.7693 0.000840075C46.5824 -0.0758725 49.3838 5.12297 53.8046 6.67673L53.8047 6.67673C53.8047 6.67673 53.8046 6.67675 53.8046 6.67676L53.8046 6.67675Z" fill="rgb(55,43,43)" fill-rule="nonzero" transform="matrix(0.995932,-0.0901066,0.0901066,0.995932,7.54614,6.39157)" />
	<path id="Форма 62" d="M0.358921 0.0255881C0.367455 0.023939 0.375988 0.0220543 0.384521 0.0204052C0.205886 -0.0107395 0.0738304 -0.00225836 0 0.01951C0.129085 0.00942681 0.248223 0.011924 0.358921 0.0255881Z" fill="rgb(255,255,255)" fill-rule="nonzero" transform="matrix(0.995932,-0.0901066,0.0901066,0.995932,36.4282,327.438)" />
	<path id="Форма 63" d="M0.301514 0C0.106195 0.0678896 0.0180135 0.100656 0 0.109283C0.0974709 0.0730285 0.195508 0.0381879 0.293686 0.00348877C0.296185 0.00235728 0.299156 0.00113149 0.301514 0Z" fill="rgb(255,255,255)" fill-rule="nonzero" transform="matrix(0.995932,-0.0901066,0.0973376,0.995278,22.1958,319.599)" />
	<path id="Форма 64" d="M0.0837423 0.028765C0.0556868 0.0194282 0.0279613 0.0094783 0 0C0.349304 0.249029 0.382027 0.186218 0.234016 0.0977538C0.181253 0.0772882 0.140702 0.0540405 0.090768 0.0316415C0.0881746 0.0307455 0.0863829 0.0296609 0.0837423 0.028765Z" fill="rgb(255,255,255)" fill-rule="nonzero" transform="matrix(0.995932,-0.0901066,0.0901066,0.995932,20.9816,304.098)" />
</svg>
