<svg viewBox="0 0 244.839 333.498" xmlns="http://www.w3.org/2000/svg" xmlns:xlink="http://www.w3.org/1999/xlink" width="244.839478" height="333.497803" fill="none" customFrame="#000000">
	<rect id="cta-1" width="238.928101" height="333.497803" x="0.000000" y="0.000015" />
	<path id="Форма 35" d="M194.292 187.267L211.292 188.806L232.405 199.529L235.887 187.093L238.928 171.35L232.593 163.888L221.65 171.35L198.768 168.863L194.292 187.267Z" fill="rgb(253,173,176)" fill-rule="nonzero" />
	<path id="Форма 36" d="M54.7372 163.4L41.6697 201.603L135.682 174.742L196.367 191.655L205.32 172.255L138.169 143.902L86.1461 165.038L54.7372 163.4Z" fill="rgb(55,43,43)" fill-rule="nonzero" />
	<path id="uuid-1b18f281-de0d-4de5-a01b-8589a33a6e3c-2422" d="M113.278 42.0455L101.603 63.7846L110.125 68.6582L122.394 47.0789C124.322 45.7508 125.904 43.9802 127.007 41.9154C129.84 36.7852 129.49 31.1674 126.226 29.3652C122.962 27.5631 118.021 30.2597 115.19 35.3884C114.03 37.4229 113.375 39.7056 113.278 42.0456L113.278 42.0455Z" fill="rgb(253,173,176)" fill-rule="nonzero" />
	<path id="Форма 38" d="M27.2103 97.4443L86.453 108.741L123 51.3527L108.44 42.3955L80.3314 80.1297L26.9084 73.4342L27.2103 97.4443Z" fill="rgb(230,230,230)" fill-rule="nonzero" />
	<path id="Форма 39" d="M16.1138 82.5463L22.5802 59.6651L38.4976 60.1625L43.9692 78.5669L16.1138 82.5463Z" fill="rgb(253,173,176)" fill-rule="nonzero" />
	<path id="Форма 40" d="M16.1138 82.5463L22.5802 59.6651L38.4976 60.1625L43.9692 78.5669L16.1138 82.5463Z" opacity="0.100000001" fill="rgb(0,0,0)" fill-rule="nonzero" />
	<ellipse id="Эллипс 1" rx="21.138853" ry="21.138824" cx="32.5609741" cy="44.5326385" fill="rgb(253,173,176)" />
	<path id="Форма 41" d="M30.8739 16.1131L30.5541 16.6617C34.689 15.8399 46.1785 15.308 49.0108 18.4307C51.8432 21.5535 52.8886 26.1954 51.6683 30.2307C53.6752 31.4033 55.0927 33.5339 55.399 35.838C55.7052 38.142 54.8933 40.569 53.2624 42.225C53.8921 38.9572 52.1339 35.5199 49.4182 33.5963C46.7024 31.6728 43.2029 31.1071 39.8896 31.4194C33.8749 31.9864 28.1914 35.4042 24.8706 40.451C22.1174 44.6351 20.6595 50.0989 16.276 52.522C15.3697 53.0229 17.7493 54.9485 17.1396 55.7855C16.1734 57.1119 16.973 54.9878 17.9288 56.3218C18.8845 57.6558 17.7788 59.3337 18.5505 60.7819C19.3222 62.2302 18.0464 66.2168 16.6431 67.0675C10.3591 60.8384 0.723076 52.7005 0.40291 43.8581C0.0827265 35.0158 2.11046 27.5853 7.92748 20.9181C3.84598 18.2042 2.88431 12.1345 5.14312 7.7846C7.4019 3.4347 12.195 0.804187 17.0529 0.152763C20.8358 -0.354494 25.038 0.345684 27.6822 3.09806C29.4341 4.92161 30.2926 7.4012 31.1015 9.79704C31.4817 10.9231 31.8619 12.0491 32.2421 13.1752C32.4686 13.8462 32.6971 14.5688 32.501 15.2494C32.3048 15.9299 31.4855 16.4702 30.8738 16.1131L30.8739 16.1131L30.8739 16.1131L30.8739 16.1131L30.8739 16.1131Z" fill="rgb(55,43,43)" fill-rule="nonzero" />
	<path id="Форма 42" d="M30.2319 31.542L29.8486 31.8073C31.1122 35.7247 28.5325 39.7926 25.7857 42.8582C23.0389 45.9237 19.8079 49.0792 19.4437 53.1791C19.0303 57.8329 22.5207 62.2768 21.7283 66.8812C21.0476 70.8364 16.7851 73.7929 12.842 73.0447C16.8325 69.638 18.4663 63.7227 16.7899 58.7509C15.7644 55.7092 13.6184 52.9563 13.5696 49.7467C13.5212 46.5721 15.5372 43.7835 17.4618 41.2583C20.8009 36.8772 24.7551 32.1332 30.2318 31.542L30.2318 31.542L30.2319 31.542L30.2319 31.542L30.2319 31.542Z" fill="rgb(55,43,43)" fill-rule="nonzero" />
	<path id="Форма 52" d="M115.342 294.437L123.152 314.312L124.125 320.217L129.605 325.625L156.166 319.692L153.438 307.11L137.555 304.727L133.275 293.452L115.342 294.437Z" fill="rgb(253,173,176)" fill-rule="nonzero" />
	<path id="Форма 53" d="M152.717 315.671L151.955 318.009L122.503 319.42C122.503 319.42 127.774 330.926 128.567 333.255C129.361 335.583 173.594 320.51 179.933 317.31C186.272 314.111 182.072 308.786 182.072 308.786L150.017 305.126L152.717 315.671L152.717 315.671L152.717 315.671Z" fill="rgb(55,43,43)" fill-rule="nonzero" />
	<path id="Форма 54" d="M8.70037 168.112L4.01836 174.738C4.01836 174.738 -7.2553 194.047 25.6904 208.885C58.6362 223.723 77.2816 224.556 77.2816 224.556L121.248 308.87L139.292 298.981L104.342 208.397L59.9527 162.928L8.70038 168.112L8.70036 168.112L8.70036 168.112L8.70037 168.112Z" fill="rgb(55,43,43)" fill-rule="nonzero" />
	<path id="Форма 58" d="M189.84 101.331C189.852 101.337 189.863 101.341 189.875 101.347C189.866 101.343 189.858 101.339 189.85 101.334C189.846 101.333 189.843 101.332 189.84 101.331Z" fill="rgb(255,255,255)" fill-rule="nonzero" />
	<path id="Форма 59" d="M172.518 115.205C172.395 115.187 172.28 115.235 172.209 115.291C172.318 115.259 172.416 115.235 172.489 115.224C172.498 115.217 172.509 115.211 172.518 115.205Z" fill="rgb(255,255,255)" fill-rule="nonzero" />
	<path id="Форма 65" d="M19.5345 76.0049C19.5345 76.0049 14.809 74.7613 5.85544 86.202C-3.09811 97.6426 0.881242 179.219 0.881242 179.219L65.7944 164.545L53.4201 91.4998L45.4002 75.01L19.5345 76.0049L19.5345 76.0049L19.5345 76.0049L19.5345 76.0049Z" fill="rgb(230,230,230)" fill-rule="nonzero" />
	<path id="uuid-6a6f90e8-11fb-4fd4-acf7-524898dc7c05-2425" d="M87.1749 154.676L62.5934 152.524L61.4766 162.277L86.1459 165.038C88.1269 166.286 90.3779 167.041 92.7106 167.241C98.5422 167.82 103.566 165.282 103.935 161.572C104.303 157.862 99.8761 154.385 94.0465 153.807C91.7195 153.544 89.3632 153.842 87.1749 154.676Z" fill="rgb(253,173,176)" fill-rule="nonzero" />
	<path id="Форма 66" d="M2.31616 97.4433L15.3065 156.338L82.458 167.281L84.9451 150.369L39.1826 139.426L24.26 87.6941L2.31616 97.4433Z" fill="rgb(230,230,230)" fill-rule="nonzero" />
	<path id="Форма 37" d="M234.313 170.676L236.303 172.168L223.949 195.55C223.949 195.55 232.294 200.418 234.781 200.418C237.268 200.418 245.754 152.272 244.759 145.161C243.764 138.05 237.297 140.334 237.297 140.334L223.339 169.822L234.313 170.676L234.313 170.676L234.313 170.676Z" fill="rgb(55,43,43)" fill-rule="nonzero" />
</svg>
