<svg viewBox="0 0 422.083 150.606" xmlns="http://www.w3.org/2000/svg" xmlns:xlink="http://www.w3.org/1999/xlink" width="422.082947" height="150.605713" fill="none" customFrame="#000000">
	<path id="arrow" d="M13.2717 3.0684C12.9235 3.62461 12.477 4.42115 11.9322 5.45803C10.8277 7.56032 9.80514 9.78605 8.86453 12.1352C5.86043 19.6379 4.24753 26.9337 4.02584 34.0224C3.71873 43.8422 6.16802 52.5699 11.3737 60.2056C17.95 69.8519 28.788 77.5366 43.8875 83.2596L43.1787 85.1298L43.779 83.222C50.3711 85.2966 57.6904 86.5291 65.7371 86.9197C73.2447 87.2841 81.1182 86.9065 89.3577 85.7868C97.1246 84.7313 104.821 83.0743 112.446 80.8157C119.795 78.6391 126.583 76.0536 132.81 73.0591C138.982 70.0911 144.123 66.9531 148.235 63.6449C152.354 60.3307 155.108 57.1137 156.498 53.9939C157.835 50.9948 157.778 48.2385 156.329 45.7251C154.625 42.7707 151.109 40.1434 145.779 37.8433C140.396 35.5197 135.132 34.7359 129.986 35.4917C125.211 36.193 120.772 38.1733 116.67 41.4324C112.699 44.5877 109.352 48.6805 106.63 53.7108C103.904 58.7495 102.065 64.2452 101.113 70.1979C100.125 76.3757 100.188 82.4985 101.301 88.566C102.49 95.0456 104.81 101.031 108.26 106.521C112.015 112.496 116.958 117.625 123.089 121.909C129.827 126.616 137.822 130.17 147.074 132.571L146.572 134.507L146.798 132.52C160.048 134.025 171.652 134.186 181.609 133.002C190.409 131.956 198.184 129.817 204.932 126.586C210.546 123.899 215.858 120.227 220.868 115.571C222.891 113.69 225.046 111.486 227.333 108.96C228.715 107.432 230.747 105.096 233.428 101.952C237.187 97.5428 240.088 94.2678 242.129 92.1269L243.577 93.5071L242.082 92.1784C244.661 89.2771 247.593 86.5822 250.878 84.0936C254.136 81.6254 257.593 79.4723 261.248 77.6343C264.97 75.7631 268.731 74.303 272.532 73.2539C276.493 72.1605 280.342 71.5577 284.079 71.4454C288.046 71.3262 291.762 71.7649 295.228 72.7616C298.935 73.8278 302.26 75.5058 305.203 77.7956C311.645 82.8078 315.922 90.4096 318.035 100.601C320.193 111.012 323.353 119.292 327.514 125.441C331.933 131.971 337.811 136.597 345.147 139.32C352.933 142.209 362.779 143.141 374.686 142.116C386.959 141.06 401.898 137.885 419.501 132.592L420.652 136.422C402.785 141.795 387.578 145.021 375.029 146.101C362.526 147.177 352.102 146.167 343.756 143.07C335.617 140.05 329.099 134.921 324.201 127.683C319.745 121.097 316.384 112.34 314.118 101.413C312.205 92.1823 308.414 85.3622 302.747 80.9526C297.742 77.0587 291.56 75.2224 284.199 75.4436C280.782 75.5463 277.248 76.1016 273.596 77.1097C270.049 78.0888 266.532 79.4549 263.045 81.208C259.607 82.9365 256.357 84.9611 253.293 87.282C250.217 89.6124 247.476 92.1304 245.071 94.8358L245.048 94.8621L245.024 94.8872C243.034 96.9745 240.183 100.194 236.471 104.547C233.765 107.721 231.708 110.086 230.299 111.643C227.935 114.256 225.699 116.541 223.591 118.501C218.283 123.433 212.64 127.331 206.66 130.194C199.513 133.616 191.32 135.876 182.082 136.974C171.816 138.195 159.905 138.035 146.346 136.494L146.206 136.478L146.07 136.443C136.353 133.921 127.929 130.17 120.798 125.188C114.224 120.595 108.916 115.082 104.873 108.649C101.15 102.725 98.6483 96.2714 97.3668 89.2879C96.1708 82.7701 96.1029 76.1962 97.163 69.5663C98.1865 63.1651 100.17 57.2454 103.112 51.8072C106.093 46.2973 109.783 41.7951 114.182 38.3005C118.846 34.5952 123.92 32.3397 129.405 31.5341C135.3 30.6683 141.286 31.5472 147.365 34.1707C153.505 36.8212 157.648 40.0065 159.794 43.7268C161.922 47.417 162.042 51.3821 160.152 55.6221C158.5 59.3302 155.363 63.0433 150.742 66.7613C146.392 70.262 140.992 73.5629 134.543 76.664C128.123 79.7513 121.136 82.4136 113.582 84.651C105.761 86.9676 97.8655 88.6674 89.8963 89.7504C81.4137 90.9031 73.2959 91.2913 65.5432 90.915C57.1532 90.5078 49.4982 89.2153 42.5783 87.0376L42.5236 87.0203L42.4698 87C26.5851 80.9793 15.118 72.7989 8.06869 62.4588C2.37384 54.1056 -0.30646 44.5851 0.0277909 33.8974C0.264208 26.3379 1.97199 18.5883 5.15114 10.6484C6.14279 8.17173 7.22281 5.82148 8.3912 3.59762C8.98289 2.47142 9.47962 1.58747 9.88138 0.945756L13.2717 3.0684ZM9.88772 0.973321L9.88138 0.945756C10.4757 -0.00353765 11.6886 -0.282428 12.6379 0.311913C13.5872 0.906255 13.8661 2.11911 13.2717 3.0684L13.2442 3.07474L9.88772 0.973321ZM417.368 135.322L405.037 128.692C404.051 128.162 403.692 126.97 404.223 125.984C404.753 124.997 405.945 124.639 406.931 125.169L421.024 132.746C422.01 133.276 422.368 134.468 421.838 135.454L414.262 149.547C413.731 150.533 412.539 150.891 411.553 150.361C410.566 149.831 410.208 148.639 410.738 147.652L417.368 135.322Z" fill="rgb(241,186,10)" fill-rule="nonzero" />
</svg>
