<svg viewBox="0 0 300 200.904" xmlns="http://www.w3.org/2000/svg" xmlns:xlink="http://www.w3.org/1999/xlink" width="300.000000" height="200.904022" fill="none">
	<rect id="features" width="300.000000" height="200.904022" x="0.000000" y="0.000000" />
	<g id="Сочетание 1">
		<path id="Форма 21" d="M294.885 115.261L294.885 198.347L86.7238 198.347C77.9508 198.652 69.3065 196.172 62.0297 191.262C54.7529 186.352 49.2172 179.265 46.2161 171.016C43.215 162.766 42.9025 153.778 45.3235 145.341C47.7444 136.903 52.7744 129.448 59.6926 124.044C66.6108 118.641 75.0621 115.567 83.8351 115.261C84.7981 115.228 85.7616 115.228 86.7255 115.261L294.885 115.261Z" fill="rgb(242,242,242)" fill-rule="nonzero" />
		<path id="Форма 22" d="M299.999 197.708C299.999 198.269 299.852 198.82 299.571 199.307C299.29 199.793 298.887 200.196 298.401 200.477C297.915 200.758 297.363 200.905 296.802 200.905L83.0181 200.905C73.7726 200.905 64.7644 197.978 57.2847 192.544C49.8049 187.11 44.2376 179.447 41.3805 170.654C38.5235 161.861 38.5235 152.389 41.3805 143.596C44.2376 134.803 49.8049 127.14 57.2847 121.706C64.7644 116.272 73.7726 113.345 83.0181 113.345L296.806 113.345C297.379 113.325 297.947 113.46 298.45 113.736C298.953 114.011 299.373 114.417 299.665 114.91C299.957 115.404 300.112 115.967 300.112 116.54C300.112 117.114 299.957 117.677 299.665 118.17C299.373 118.664 298.953 119.069 298.45 119.345C297.947 119.62 297.379 119.755 296.806 119.736L83.0181 119.736C75.1393 119.762 67.4702 122.276 61.1054 126.92C54.7405 131.564 50.0053 138.099 47.5756 145.594C45.1459 153.089 45.1459 161.16 47.5756 168.655C50.0053 176.149 54.7405 182.685 61.1053 187.329C67.4702 191.972 75.1393 194.487 83.0181 194.513L296.806 194.513C297.366 194.513 297.917 194.661 298.402 194.942C298.887 195.223 299.29 195.626 299.571 196.111C299.851 196.597 299.999 197.147 299.999 197.708Z" fill="rgb(246,222,38)" fill-rule="nonzero" />
		<path id="Форма 23" d="M294.889 134.435L71.1963 134.435C71.0614 134.436 70.9295 134.395 70.8195 134.316C70.7096 134.238 70.6273 134.127 70.5844 133.999C70.5415 133.871 70.5402 133.733 70.5807 133.604C70.6213 133.475 70.7015 133.363 70.8099 133.282C70.9184 133.202 71.0495 133.158 71.1844 133.157L294.889 133.157C295.024 133.157 295.155 133.2 295.264 133.279C295.374 133.358 295.455 133.47 295.496 133.598C295.538 133.727 295.538 133.865 295.496 133.993C295.455 134.122 295.374 134.234 295.264 134.313C295.155 134.392 295.024 134.435 294.889 134.435Z" fill="rgb(204,204,204)" fill-rule="nonzero" />
		<path id="Форма 24" d="M294.889 149.774L71.1963 149.774C71.0614 149.775 70.9295 149.734 70.8195 149.656C70.7096 149.577 70.6273 149.466 70.5844 149.338C70.5415 149.21 70.5402 149.072 70.5807 148.943C70.6213 148.814 70.7015 148.702 70.8099 148.622C70.9184 148.541 71.0495 148.497 71.1844 148.496L294.889 148.496C295.024 148.496 295.155 148.539 295.264 148.618C295.374 148.697 295.455 148.809 295.496 148.938C295.538 149.066 295.538 149.204 295.496 149.333C295.455 149.461 295.374 149.573 295.264 149.652C295.155 149.731 295.024 149.774 294.889 149.774Z" fill="rgb(204,204,204)" fill-rule="nonzero" />
		<path id="Форма 25" d="M294.889 165.112L71.1963 165.112C71.0614 165.114 70.9295 165.072 70.8195 164.994C70.7096 164.916 70.6273 164.804 70.5844 164.676C70.5415 164.548 70.5402 164.41 70.5807 164.281C70.6213 164.153 70.7015 164.04 70.8099 163.96C70.9184 163.879 71.0495 163.835 71.1844 163.834L294.889 163.834C295.024 163.834 295.155 163.877 295.264 163.956C295.374 164.036 295.455 164.147 295.496 164.276C295.538 164.404 295.538 164.542 295.496 164.671C295.455 164.799 295.374 164.911 295.264 164.99C295.155 165.07 295.024 165.112 294.889 165.112Z" fill="rgb(204,204,204)" fill-rule="nonzero" />
		<path id="Форма 26" d="M294.889 180.451L71.1963 180.451C71.0614 180.453 70.9295 180.411 70.8195 180.333C70.7096 180.255 70.6273 180.144 70.5844 180.016C70.5415 179.888 70.5402 179.749 70.5807 179.621C70.6213 179.492 70.7015 179.379 70.8099 179.299C70.9184 179.219 71.0495 179.175 71.1844 179.173L294.889 179.173C295.024 179.173 295.155 179.216 295.264 179.295C295.374 179.375 295.455 179.487 295.496 179.615C295.538 179.743 295.538 179.882 295.496 180.01C295.455 180.138 295.374 180.25 295.264 180.329C295.155 180.409 295.024 180.452 294.889 180.451Z" fill="rgb(204,204,204)" fill-rule="nonzero" />
		<path id="Форма 27" d="M255.646 27.7263L255.646 110.812L47.4847 110.812C38.7117 111.117 30.0673 108.637 22.7904 103.727C15.5135 98.8174 9.97768 91.73 6.97641 83.4807C3.97515 75.2314 3.66249 66.2437 6.08324 57.8058C8.50399 49.3678 13.5339 41.9129 20.452 36.5093C27.3701 31.1058 35.8213 28.0311 44.5943 27.7259C45.5574 27.6923 46.5208 27.6923 47.4847 27.7259L255.646 27.7263Z" fill="rgb(242,242,242)" fill-rule="nonzero" />
		<path id="Форма 28" d="M260.761 110.173C260.761 110.734 260.613 111.285 260.333 111.771C260.052 112.257 259.649 112.661 259.162 112.942C258.676 113.222 258.125 113.37 257.564 113.37L43.7798 113.37C34.5343 113.37 25.5262 110.443 18.0464 105.009C10.5666 99.5744 4.99929 91.9116 2.14226 83.1186C-0.714747 74.3256 -0.714747 64.8539 2.14226 56.0609C4.99929 47.2679 10.5666 39.6051 18.0464 34.1707C25.5261 28.7364 34.5343 25.8094 43.7798 25.8094L257.566 25.8094C258.139 25.7899 258.707 25.925 259.21 26.2005C259.714 26.4759 260.133 26.8816 260.426 27.3751C260.718 27.8685 260.872 28.4315 260.872 29.005C260.872 29.5786 260.718 30.1416 260.426 30.635C260.133 31.1284 259.714 31.5341 259.21 31.8096C258.707 32.085 258.139 32.2201 257.566 32.2006L43.7798 32.2006C35.9011 32.2267 28.2319 34.7411 21.8671 39.3848C15.5022 44.0285 10.767 50.5642 8.33728 58.0589C5.90758 65.5537 5.90758 73.6245 8.33728 81.1193C10.767 88.6141 15.5022 95.1497 21.8671 99.7934C28.2319 104.437 35.9011 106.951 43.7798 106.978L257.566 106.978C258.127 106.978 258.679 107.125 259.165 107.406C259.651 107.687 260.055 108.09 260.335 108.576C260.616 109.062 260.764 109.614 260.764 110.175L260.761 110.173Z" fill="rgb(246,222,38)" fill-rule="nonzero" />
		<path id="Форма 29" d="M255.647 46.8995L31.9546 46.8995C31.8197 46.9007 31.6878 46.8592 31.5778 46.7809C31.4679 46.7026 31.3856 46.5915 31.3427 46.4635C31.2998 46.3356 31.2985 46.1973 31.339 46.0685C31.3796 45.9398 31.4598 45.8272 31.5682 45.7468C31.6767 45.6665 31.8078 45.6226 31.9427 45.6213L255.647 45.6213C255.782 45.6213 255.913 45.664 256.023 45.7434C256.132 45.8227 256.213 45.9345 256.255 46.0629C256.296 46.1912 256.296 46.3295 256.255 46.4579C256.213 46.5862 256.132 46.6981 256.023 46.7774C255.913 46.8567 255.782 46.8995 255.647 46.8995Z" fill="rgb(204,204,204)" fill-rule="nonzero" />
		<path id="Форма 30" d="M255.647 62.2381L31.9546 62.2381C31.8197 62.2394 31.6878 62.1979 31.5778 62.1196C31.4679 62.0412 31.3856 61.9301 31.3427 61.8022C31.2998 61.6742 31.2985 61.536 31.339 61.4072C31.3796 61.2785 31.4598 61.1659 31.5682 61.0855C31.6767 61.0052 31.8078 60.9612 31.9427 60.96L255.647 60.96C255.782 60.96 255.913 61.0027 256.023 61.082C256.132 61.1613 256.213 61.2732 256.255 61.4016C256.296 61.5299 256.296 61.6682 256.255 61.7965C256.213 61.9249 256.132 62.0367 256.023 62.1161C255.913 62.1954 255.782 62.2381 255.647 62.2381Z" fill="rgb(204,204,204)" fill-rule="nonzero" />
		<path id="Форма 31" d="M255.647 77.5768L31.9546 77.5768C31.8197 77.5781 31.6878 77.5366 31.5778 77.4583C31.4679 77.38 31.3856 77.2689 31.3427 77.1409C31.2998 77.0129 31.2985 76.8747 31.339 76.7459C31.3796 76.6172 31.4598 76.5046 31.5682 76.4242C31.6767 76.3439 31.8078 76.2999 31.9427 76.2987L255.647 76.2987C255.782 76.2987 255.913 76.3414 256.023 76.4207C256.132 76.5001 256.213 76.6119 256.255 76.7403C256.296 76.8686 256.296 77.0069 256.255 77.1352C256.213 77.2636 256.132 77.3755 256.023 77.4548C255.913 77.5341 255.782 77.5768 255.647 77.5768Z" fill="rgb(204,204,204)" fill-rule="nonzero" />
		<path id="Форма 32" d="M255.647 92.9159L31.9546 92.9159C31.8197 92.9172 31.6878 92.8757 31.5778 92.7973C31.4679 92.719 31.3856 92.6079 31.3427 92.48C31.2998 92.352 31.2985 92.2137 31.339 92.085C31.3796 91.9562 31.4598 91.8436 31.5682 91.7633C31.6767 91.683 31.8078 91.639 31.9427 91.6378L255.647 91.6378C255.782 91.6377 255.913 91.6805 256.023 91.7598C256.132 91.8391 256.213 91.951 256.255 92.0793C256.296 92.2077 256.296 92.346 256.255 92.4743C256.213 92.6027 256.132 92.7145 256.023 92.7939C255.913 92.8732 255.782 92.9159 255.647 92.9159Z" fill="rgb(204,204,204)" fill-rule="nonzero" />
		<path id="Форма 33" d="M219.447 0.00862708L124.607 0.00862708C123.707 0.00791401 122.819 0.214529 122.011 0.612448L98.074 12.5959C97.2862 12.9306 96.6143 13.4898 96.142 14.2036C95.6697 14.9175 95.4178 15.7545 95.4178 16.6105C95.4178 17.4665 95.6697 18.3035 96.142 19.0174C96.6143 19.7313 97.2862 20.2904 98.074 20.6251L122.011 32.6086C122.818 33.0064 123.706 33.2131 124.607 33.2124L219.447 33.2124C220.312 33.2624 221.175 33.0858 221.951 32.6999C222.727 32.3139 223.388 31.7322 223.871 31.0121C224.353 30.292 224.638 29.4585 224.699 28.5941L224.699 4.62811C224.639 3.76358 224.353 2.92991 223.871 2.20964C223.389 1.48935 222.727 0.907409 221.951 0.521375C221.175 0.135341 220.312 -0.0414004 219.447 0.00862708Z" fill="rgb(55,43,43)" fill-rule="nonzero" />
		<path id="Форма 34" d="M224.703 4.62891L224.703 28.5953C224.641 29.4597 224.356 30.2931 223.873 31.013C223.391 31.733 222.729 32.3146 221.953 32.7003C221.177 33.0861 220.314 33.2626 219.449 33.2124L200.555 33.2124L200.555 0.00820684L219.449 0.00820684C220.315 -0.0419833 221.178 0.134733 221.954 0.520867C222.731 0.906988 223.392 1.48913 223.874 2.20965C224.357 2.93018 224.642 3.76412 224.703 4.62891Z" fill="rgb(241,186,10)" fill-rule="nonzero" />
	</g>
</svg>
