<svg viewBox="0 0 300 139.41" xmlns="http://www.w3.org/2000/svg" xmlns:xlink="http://www.w3.org/1999/xlink" width="300.000000" height="139.410034" fill="none" customFrame="#000000">
	<rect id="footer" width="300.000000" height="139.410065" x="0.000000" y="0.000000" />
	<path id="Форма 21" d="M296.147 70.9831L296.147 127.138L155.458 127.138C149.529 127.344 143.686 125.668 138.768 122.35C133.85 119.031 130.108 114.241 128.08 108.665C126.052 103.09 125.841 97.0155 127.477 91.3126C129.113 85.6097 132.513 80.5712 137.188 76.9192C141.864 73.2672 147.576 71.1893 153.505 70.9831C154.156 70.9604 154.808 70.9604 155.459 70.9831L296.147 70.9831Z" fill="rgb(242,242,242)" fill-rule="nonzero" />
	<path id="Форма 22" d="M299.924 126.634C299.924 127.013 299.824 127.386 299.635 127.714C299.445 128.043 299.172 128.316 298.844 128.505C298.515 128.695 298.142 128.795 297.763 128.795L153.273 128.795C147.025 128.795 140.936 126.817 135.881 123.144C130.826 119.471 127.063 114.292 125.132 108.349C123.201 102.406 123.201 96.0045 125.132 90.0616C127.063 84.1187 130.826 78.9397 135.881 75.2668C140.936 71.5938 147.025 69.6156 153.273 69.6156L297.766 69.6156C298.153 69.6025 298.537 69.6937 298.877 69.8799C299.217 70.0661 299.5 70.3403 299.698 70.6738C299.896 71.0073 300 71.3878 300 71.7754C300 72.1631 299.896 72.5436 299.698 72.8771C299.5 73.2106 299.217 73.4848 298.877 73.6709C298.537 73.8571 298.153 73.9484 297.766 73.9352L153.273 73.9352C147.948 73.9529 142.765 75.6522 138.463 78.7908C134.161 81.9293 130.961 86.3465 129.319 91.412C127.677 96.4775 127.677 101.932 129.319 106.998C130.961 112.063 134.161 116.48 138.463 119.619C142.765 122.758 147.948 124.457 153.273 124.475L297.766 124.475C298.144 124.475 298.516 124.575 298.844 124.765C299.173 124.954 299.445 125.227 299.634 125.555C299.824 125.883 299.924 126.255 299.924 126.634Z" fill="rgb(241,186,10)" fill-rule="nonzero" />
	<path id="Форма 23" d="M296.258 83.9956L145.072 83.9956C144.98 83.9964 144.891 83.9684 144.817 83.9154C144.743 83.8625 144.687 83.7874 144.658 83.7009C144.629 83.6144 144.628 83.521 144.656 83.434C144.683 83.347 144.737 83.2709 144.811 83.2166C144.884 83.1623 144.972 83.1326 145.064 83.1317L296.258 83.1317C296.349 83.1317 296.438 83.1606 296.512 83.2142C296.586 83.2678 296.641 83.3434 296.669 83.4302C296.697 83.5169 296.697 83.6104 296.669 83.6971C296.641 83.7839 296.586 83.8595 296.512 83.9131C296.438 83.9667 296.349 83.9956 296.258 83.9956Z" fill="rgb(204,204,204)" fill-rule="nonzero" />
	<path id="Форма 24" d="M296.258 94.1336L145.072 94.1336C144.98 94.1344 144.891 94.1064 144.817 94.0534C144.743 94.0005 144.687 93.9254 144.658 93.8389C144.629 93.7525 144.628 93.659 144.656 93.572C144.683 93.485 144.737 93.4089 144.811 93.3546C144.884 93.3003 144.972 93.2706 145.064 93.2697L296.258 93.2697C296.349 93.2697 296.438 93.2986 296.512 93.3522C296.586 93.4058 296.641 93.4814 296.669 93.5682C296.697 93.6549 296.697 93.7484 296.669 93.8351C296.641 93.9219 296.586 93.9975 296.512 94.0511C296.438 94.1047 296.349 94.1336 296.258 94.1336Z" fill="rgb(204,204,204)" fill-rule="nonzero" />
	<path id="Форма 25" d="M296.258 104.272L145.072 104.272C144.98 104.272 144.891 104.244 144.817 104.191C144.743 104.139 144.687 104.063 144.658 103.977C144.629 103.89 144.628 103.797 144.656 103.71C144.683 103.623 144.737 103.547 144.811 103.493C144.884 103.438 144.972 103.409 145.064 103.408L296.258 103.408C296.349 103.408 296.438 103.437 296.512 103.49C296.586 103.544 296.641 103.619 296.669 103.706C296.697 103.793 296.697 103.886 296.669 103.973C296.641 104.06 296.586 104.135 296.512 104.189C296.438 104.243 296.349 104.272 296.258 104.272Z" fill="rgb(204,204,204)" fill-rule="nonzero" />
	<path id="Форма 26" d="M296.258 115.085L145.072 115.085C144.98 115.086 144.891 115.058 144.817 115.005C144.743 114.952 144.687 114.877 144.658 114.791C144.629 114.704 144.628 114.611 144.656 114.524C144.683 114.437 144.737 114.361 144.811 114.306C144.884 114.252 144.972 114.222 145.064 114.222L296.258 114.222C296.349 114.222 296.438 114.251 296.512 114.304C296.586 114.358 296.641 114.433 296.669 114.52C296.697 114.607 296.697 114.7 296.669 114.787C296.641 114.874 296.586 114.949 296.512 115.003C296.438 115.057 296.349 115.085 296.258 115.085Z" fill="rgb(204,204,204)" fill-rule="nonzero" />
	<path id="Форма 21" d="M169.76 0.0170371L169.76 56.1721L29.0707 56.1721C23.1413 56.3782 17.2989 54.702 12.3807 51.3836C7.46255 48.0651 3.72119 43.2749 1.69285 37.6994C-0.335499 32.1239 -0.546699 26.0494 1.08952 20.3466C2.72573 14.6437 6.12537 9.60516 10.8012 5.95317C15.477 2.30118 21.1889 0.223198 27.1183 0.0170371C27.7692 -0.00567902 28.4203 -0.00567902 29.0718 0.0170371L169.76 0.0170371Z" fill="rgb(242,242,242)" fill-rule="nonzero" transform="matrix(0.866025,-0.5,0.5,0.866025,3.01709,87.977)" />
	<path id="Форма 22" d="M176.24 57.0196C176.24 57.3989 176.141 57.7716 175.951 58.1001C175.761 58.4286 175.488 58.7014 175.16 58.8911C174.831 59.0808 174.459 59.1806 174.079 59.1806L29.5897 59.1806C23.341 59.1806 17.2526 57.2024 12.1973 53.5295C7.14198 49.8566 3.37919 44.6776 1.44822 38.7347C-0.482744 32.7918 -0.482744 26.3901 1.44822 20.4472C3.37919 14.5043 7.14197 9.3253 12.1973 5.65238C17.2526 1.97947 23.341 0.00125136 29.5897 0.0012429L174.082 0.0012429C174.469 -0.0119217 174.853 0.0793682 175.193 0.265541C175.533 0.451706 175.817 0.725905 176.014 1.0594C176.212 1.3929 176.316 1.7734 176.316 2.16104C176.316 2.54868 176.212 2.92919 176.014 3.26268C175.817 3.59618 175.533 3.87038 175.193 4.05654C174.853 4.24272 174.469 4.33401 174.082 4.32084L29.5897 4.32084C24.2647 4.33849 19.0814 6.03786 14.7796 9.17638C10.4778 12.3149 7.2774 16.7322 5.63523 21.7977C3.99307 26.8631 3.99307 32.3179 5.63523 37.3834C7.2774 42.4489 10.4778 46.8661 14.7796 50.0047C19.0814 53.1432 24.2647 54.8426 29.5897 54.8602L174.082 54.8602C174.461 54.8607 174.833 54.9607 175.161 55.1503C175.489 55.3399 175.761 55.6124 175.951 55.9405C176.14 56.2686 176.24 56.6407 176.24 57.0196Z" fill="rgb(241,186,10)" fill-rule="nonzero" transform="matrix(0.866025,-0.5,0.5,0.866025,0,88.1581)" />
	<path id="Форма 23" d="M151.622 0.863864L0.435971 0.863864C0.344757 0.86471 0.255615 0.836656 0.18132 0.783727C0.107025 0.730798 0.0513986 0.655709 0.022406 0.569221C-0.00659499 0.482734 -0.00745741 0.389289 0.0199202 0.302269C0.0472979 0.215258 0.101529 0.139145 0.174818 0.0848467C0.248115 0.0305482 0.336725 0.000845508 0.427939 0L151.622 0C151.714 -8.45508e-06 151.803 0.0288741 151.876 0.0824878C151.95 0.136101 152.005 0.211707 152.033 0.298456C152.061 0.385205 152.061 0.478651 152.033 0.5654C152.005 0.652149 151.95 0.727754 151.876 0.781368C151.803 0.834982 151.714 0.863864 151.622 0.863864Z" fill="rgb(204,204,204)" fill-rule="nonzero" transform="matrix(0.866025,-0.5,0.5,0.866025,24.9036,89.3886)" />
	<path id="Форма 24" d="M151.622 0.863864L0.435971 0.863864C0.344757 0.864718 0.255615 0.836664 0.18132 0.783735C0.107025 0.730806 0.0513986 0.655717 0.022406 0.56923C-0.00659499 0.482743 -0.00745741 0.389297 0.0199202 0.302277C0.0472979 0.215266 0.101529 0.139154 0.174818 0.0848552C0.248115 0.0305566 0.336725 0.000853963 0.427939 0L151.622 0C151.714 0 151.803 0.0288825 151.876 0.0824962C151.95 0.13611 152.005 0.211715 152.033 0.298464C152.061 0.385213 152.061 0.478659 152.033 0.565408C152.005 0.652157 151.95 0.727762 151.876 0.781376C151.803 0.83499 151.714 0.863872 151.622 0.863864Z" fill="rgb(204,204,204)" fill-rule="nonzero" transform="matrix(0.866025,-0.5,0.5,0.866025,29.9727,98.1683)" />
	<path id="Форма 25" d="M151.622 0.863874L0.435971 0.863874C0.344757 0.86472 0.255615 0.836666 0.18132 0.783736C0.107025 0.730807 0.0513986 0.655716 0.022406 0.569228C-0.00659499 0.48274 -0.00745741 0.389294 0.0199202 0.302273C0.0472979 0.215261 0.101529 0.139147 0.174818 0.0848478C0.248115 0.0305486 0.336725 0.000845518 0.427939 0L151.622 0C151.714 -8.45518e-06 151.803 0.0288745 151.876 0.0824888C151.95 0.136103 152.005 0.211709 152.033 0.29846C152.061 0.38521 152.061 0.478656 152.033 0.565407C152.005 0.652157 151.95 0.727763 151.876 0.781377C151.803 0.834992 151.714 0.863874 151.622 0.863874Z" fill="rgb(204,204,204)" fill-rule="nonzero" transform="matrix(0.866025,-0.5,0.5,0.866025,35.0415,106.948)" />
	<path id="Форма 26" d="M151.622 0.863864L0.435971 0.863864C0.344757 0.864718 0.255615 0.836664 0.18132 0.783735C0.107025 0.730806 0.0513986 0.655717 0.022406 0.56923C-0.00659499 0.482743 -0.00745741 0.389297 0.0199202 0.302278C0.0472979 0.215266 0.101529 0.139154 0.174818 0.0848552C0.248115 0.0305567 0.336725 0.000853963 0.427939 0L151.622 0C151.714 0 151.803 0.0288826 151.876 0.0824962C151.95 0.13611 152.005 0.211715 152.033 0.298464C152.061 0.385213 152.061 0.478659 152.033 0.565408C152.005 0.652157 151.95 0.727763 151.876 0.781376C151.803 0.83499 151.714 0.863872 151.622 0.863864Z" fill="rgb(204,204,204)" fill-rule="nonzero" transform="matrix(0.866025,-0.5,0.5,0.866025,40.4485,116.313)" />
</svg>
