<svg viewBox="0 0 508.941 555.616" xmlns="http://www.w3.org/2000/svg" xmlns:xlink="http://www.w3.org/1999/xlink" width="508.940552" height="555.615967" fill="none" customFrame="#000000">
	<rect id="hero" width="500.000000" height="555.615967" x="0.000000" y="0.000000" />
	<path id="Форма 16" d="M287.5 40C516 68.4999 468 195 468 278C545.5 477 507.5 519 400 547.5C292.5 576 116.5 477 116.5 477C144.9 415 140.5 476 78.9999 359.5C17.4999 243 58.9999 11.5 287.5 40Z" fill="rgb(244,243,243)" fill-rule="evenodd" />
	<path id="Форма 4" d="M54.9136 0C54.9136 0 -43.391 42.7963 23.0574 106.355C89.5058 169.913 105.111 41.8029 105.111 41.8029L54.9136 0L54.9136 0Z" fill="rgb(55,43,43)" fill-rule="nonzero" transform="matrix(-1,0,0,1,335.375,221.741)" />
	<path id="Форма 5" d="M0 67.6336C0 30.2806 30.2477 0 67.56 0C104.873 0 135.12 30.2806 135.12 67.6336C135.12 97.9271 115.224 123.565 87.801 132.176L74.7405 218.584L8.15966 163.04C8.15966 163.04 22.5431 144.699 30.2568 124.018C12.0256 111.906 0 91.1798 0 67.6336L0 67.6336Z" fill="rgb(237,157,160)" fill-rule="nonzero" transform="matrix(-1,0,0,1,309.657,138.117)" />
	<path id="Форма 6" d="M187.292 3.35904L119.879 0C119.879 0 119.461 13.2605 69.5481 20.1543C69.5481 20.1543 8.74265 35.4962 8.69832 79.3675L0 209.482L316.322 210.093L295.579 54.9662C295.579 54.9662 283.722 25.0172 241.588 17.1006C241.588 17.1006 201.21 16.7723 187.292 3.35909L187.292 3.35904Z" fill="rgb(241,186,10)" fill-rule="nonzero" transform="matrix(-1,0,0,1,406.248,272.661)" />
	<path id="Форма 7" d="M140.102 70.2346C140.102 70.2346 94.6911 19.6732 15.9525 0L0 31.4526L144.198 92.0445L313.93 41.1861C313.93 41.1861 290.676 17.5356 266.996 8.55025C266.996 8.55025 154.936 37.8425 140.102 70.2345L140.102 70.2346Z" fill="rgb(230,230,230)" fill-rule="nonzero" transform="matrix(-1,0,0,1,349.907,393.586)" />
	<path id="Форма 8" d="M334.009 9.46791L303.536 58.9375L283.399 91.6149L251.004 100.602L144.582 130.091C123.882 146.251 111.638 131.314 111.638 131.314L41.6871 104.532L5.43567 90.6393L0 88.5643L0.137403 85.9946L2.12735 47.3396L4.57039 0L144.898 53.7432C160.189 65.025 166.243 52.534 166.243 52.534L334.009 9.46795L334.009 9.46791Z" fill="rgb(55,43,43)" fill-rule="nonzero" transform="matrix(-1,0,0,1,358.359,418.011)" />
	<path id="Форма 9" d="M63.6954 22.8802L50.872 42.9385C49.5348 45.0301 47.5912 46.6628 45.3014 47.618L24.2192 56.4118C18.8803 58.6388 12.7132 56.8057 9.46503 52.0149C4.74 45.0457 0.126708 35.9272 0.00636334 30.8429C-0.364301 14.2706 15.5446 0.460353 35.5447 0.00687928C41.5396 -0.137328 50.2418 2.00793 57.7864 4.92239C64.9875 7.70415 67.8562 16.3719 63.6954 22.8802L63.6954 22.8802Z" fill="rgb(237,157,160)" fill-rule="nonzero" transform="matrix(-1,0,0,1,116.709,468.285)" />
	<path id="Форма 10" d="M79.8561 38.3465C77.1108 50.5077 65.7997 58.9038 52.0731 60.4428C47.5436 60.965 42.7527 60.7314 37.9075 59.6321C28.7111 57.5571 20.9966 52.7476 15.8217 46.5501C14.6963 45.2309 13.6936 43.8568 12.829 42.4277L8.634 42.6967C3.7917 43.0072 -0.238722 39.0224 0.0110176 34.1713L1.11041 12.8155C1.34264 8.30453 5.2059 4.84941 9.70954 5.12484L21.0791 5.82021C29.0677 0.598454 39.9665 -1.44903 51.1261 1.07944C70.6456 5.49043 83.5076 22.1727 79.8561 38.3465L79.8561 38.3465Z" fill="rgb(237,157,160)" fill-rule="nonzero" transform="matrix(-1,0,0,1,380.476,466)" />
	<path id="Форма 11" d="M1.07489e-05 25.4185L25.4615 50.0836C29.7826 54.2697 37.0169 51.2602 37.0798 45.2409C37.252 28.7715 39.3957 6.22832 50.0161 8.62627L5.32701 0L0 25.4185L1.07489e-05 25.4185Z" fill="rgb(241,186,10)" fill-rule="nonzero" transform="matrix(-1,0,0,1,406.248,456.724)" />
	<path id="Форма 12" d="M74.8097 7.75708C60.0361 4.90889 44.1339 8.53143 32.0461 17.4987C19.9583 26.466 11.8681 40.6421 10.2903 55.6204C3.76782 56.6586 0.0755968 64.0505 0.00166607 70.6617C-0.0722754 77.2729 2.32905 83.6604 2.95372 90.2424C3.39664 94.9093 2.94474 99.6624 3.84303 104.263C4.74132 108.864 7.41443 113.542 11.8681 114.99C4.82712 118.427 4.95781 129.884 11.1875 134.637C17.4173 139.391 26.8132 137.962 32.952 133.091C39.0908 128.22 42.5231 120.702 44.7947 113.197C47.0663 105.693 48.4144 97.8804 51.4866 90.6669C60.3412 69.8763 84.4536 56.824 106.68 60.7902C128.907 64.7564 147.029 85.3452 148.162 107.918C148.499 114.613 147.839 122.278 152.599 126.993C159.163 133.496 170.697 128.948 176.719 121.939C184.511 112.869 187.935 100.199 185.774 88.4333C183.613 76.6677 175.91 66.0458 165.405 60.3442C163.257 39.5775 150.863 20.1229 132.959 9.41631C115.056 -1.29024 92.069 -2.9934 72.7857 4.95783" fill="rgb(55,43,43)" fill-rule="nonzero" transform="matrix(-1,0,0,1,334.975,101.467)" />
</svg>
