<svg viewBox="0 0 300 273.32" xmlns="http://www.w3.org/2000/svg" xmlns:xlink="http://www.w3.org/1999/xlink" width="300.000000" height="273.319702" fill="none" customFrame="#000000">
	<g id="decor">
		<path id="Форма 88" d="M120.107 0C120.107 0 142.026 36.288 139.497 41.7902C124.492 41.7903 0 41.7902 0 41.7902C0 41.7902 22.3235 20.7436 17.2651 0L120.107 0Z" fill="rgb(55,43,43)" fill-rule="nonzero" transform="matrix(-1,0,0,1,291.998,231.279)" />
		<path id="Форма 89" d="M64.0862 4.80524C64.0862 4.80524 63.1627 14.6535 62.9918 21.0952C62.821 27.5368 66.7444 25.7097 67.6191 31.2569C68.4938 36.804 64.6556 40.9297 66.4918 43.2892C72.1069 50.5062 44.0432 54.5072 41.6624 54.5072C39.2816 54.5072 13.6049 45.7136 8.79355 43.2831C3.98225 40.8526 0 23.2402 0 23.2402C0 23.2402 24.0505 28.0515 31.2675 0L64.0862 4.80524Z" fill="rgb(237,157,160)" fill-rule="nonzero" transform="matrix(-1,0,0,1,256.098,88.9637)" />
		<path id="Форма 90" d="M79.6633 27.5698C79.6633 27.5698 43.3999 33.8182 34.9685 3.45586L10.6517 18.6621C8.74177 20.1443 7.15297 21.9993 5.98183 24.1143C4.81069 26.2294 4.08162 28.5604 3.83891 30.9658L1.19593 57.0863C1.19593 57.0863 -1.75789 66.7865 1.61885 72.687C1.61885 72.687 36.6398 63.8326 37.4659 73.9492L13.0173 142.267C13.0173 142.267 50.9724 143.113 61.0899 136.367C61.0899 136.367 102.415 144.798 112.538 135.521C122.661 126.243 132.777 127.089 124.346 106.004C124.346 106.004 141.215 89.1342 133.597 65.5182C125.978 41.9023 133.174 65.9411 133.174 65.9411C133.174 65.9411 149.621 57.926 148.775 42.7481L147.09 27.5505C147.09 27.5505 146.997 27.0484 146.766 26.1428C141.624 6.13383 127.808 -4.91427 108.387 2.12981C102.711 4.18456 96.9091 1.83265 96.9091 1.83265C96.9091 1.83265 103.273 29.2543 79.6633 27.5698Z" fill="rgb(241,186,10)" fill-rule="nonzero" transform="matrix(-1,0,0,1,290.264,108.315)" />
		<path id="Форма 91" d="M0 5.90055C0 5.90055 1.68508 65.7799 3.37674 73.3721C5.06841 80.9643 28.2829 108.309 40.9289 109.154C40.9289 109.154 49.7153 111.093 60.011 111.371C66.3527 111.543 65.8861 106.962 71.6741 105.033C77.0019 103.256 86.9838 105.572 89.169 103.511C80.0412 83.6798 62.9282 93.7859 57.9827 91.5946L29.4962 64.0938L29.4962 0L0 5.90055Z" fill="rgb(237,157,160)" fill-rule="nonzero" transform="matrix(-1,0,0,1,288.622,158.655)" />
		<path id="Форма 92" d="M36.571 12.1993C36.571 12.1993 17.1305 28.3417 0.247814 27.2382C0.247814 27.2382 -1.37489 1.65321 3.68439 0.391061C8.74368 -0.871091 30.672 0.391062 36.571 12.1993Z" fill="rgb(241,186,10)" fill-rule="nonzero" transform="matrix(-1,0,0,1,288.931,153.625)" />
		<ellipse id="Эллипс 6" rx="38.794281" ry="38.794312" cx="38.794281" cy="38.7943115" fill="rgb(237,157,160)" transform="matrix(-1,0,0,1,243.497,32.9895)" />
		<rect id="Прямоугольник 12" width="77.594650" height="10.962386" x="0.000000" y="0.000000" rx="5.481193" fill="rgb(55,43,43)" transform="matrix(-1,0,0,1,235.886,262.219)" />
		<rect id="Прямоугольник 13" width="182.684494" height="130.879776" x="0.000000" y="0.000000" rx="10.000000" fill="rgb(55,43,43)" transform="matrix(-1,0,0,1,182.685,142.44)" />
		<ellipse id="Эллипс 7" rx="5.900556" ry="5.900561" cx="5.90055609" cy="5.90056086" fill="rgb(241,186,10)" transform="matrix(-1,0,0,1,88.7102,201.077)" />
		<path id="Форма 93" d="M42.8169 54.6312C42.8169 54.6312 51.7895 86.9798 42.9401 96.1967C34.0908 105.414 36.1451 112.48 36.1451 112.48C36.1451 112.48 13.7898 119.616 10.5241 93.1968L15.9759 113.358C15.9759 113.358 -5.01125 111.702 1.12358 85.4838C7.25842 59.2655 14.8628 59.2381 10.5241 51.2042C6.1854 43.1703 6.1854 2.38666 30.8688 0.241136C55.5521 -1.90438 52.3331 10.9733 52.3331 10.9733L42.8149 54.6342L42.8169 54.6312Z" fill="rgb(55,43,43)" fill-rule="nonzero" transform="matrix(-0.981627,0.190809,0.190809,0.981627,278.37,0)" />
		<path id="Форма 94" d="M69.3394 9.34534C69.3394 9.34534 38.7256 -11.4258 16.1882 8.96502C-6.34909 29.3558 -7.86529 66.7612 27.7723 88.8406L24.7739 73.3575C24.7739 73.3575 16.1882 60.4773 30.1399 61.5523C44.0916 62.6274 41.9451 49.7472 41.9451 49.7472C41.9451 49.7472 71.8257 36.2777 71.9104 26.9142L83.0518 44.4201C83.0518 44.4201 105.319 25.8234 69.3394 9.34485L69.3394 9.34534Z" fill="rgb(55,43,43)" fill-rule="nonzero" transform="matrix(-0.981627,0.190809,0.190809,0.981627,243.969,8.73547)" />
		<path id="Форма 95" d="M15.9577 6.59744C15.9577 6.59744 10.5601 -5.93795 3.59977 3.54929C-3.3606 13.0365 1.9157 19.8326 1.9157 19.8326L15.9577 6.59744Z" fill="rgb(241,186,10)" fill-rule="nonzero" transform="matrix(-0.981627,0.190809,0.190809,0.981627,237.517,12.4109)" />
	</g>
</svg>
