<svg viewBox="0 0 200 185.826" xmlns="http://www.w3.org/2000/svg" xmlns:xlink="http://www.w3.org/1999/xlink" width="200.000000" height="185.825562" fill="none" customFrame="#000000">
	<g id="notFound">
		<circle id="Эллипс 9" cx="84.2217484" cy="12.5179539" r="3.29389381" fill="rgb(255,255,255)" />
		<g id="Сочетание 6">
			<path id="Форма 109" d="M178.261 185.773L21.786 185.825C17.9636 185.841 14.205 184.846 10.8905 182.942C7.57597 181.039 4.82324 178.293 2.91085 174.983C0.998474 171.674 -0.00567578 167.917 2.41523e-05 164.095C0.00572408 160.273 1.02108 156.52 2.94333 153.216L81.131 10.8792C83.0384 7.57282 85.7825 4.82679 89.0876 2.9171C92.3927 1.00741 96.1422 0.00133642 99.9593 0C103.776 -0.00133642 107.527 1.00211 110.833 2.90949C114.139 4.81688 116.885 7.56097 118.795 10.866L197.093 153.163C198.999 156.469 200.001 160.217 200 164.033C199.999 167.848 198.993 171.596 197.085 174.9C195.177 178.204 192.434 180.947 189.13 182.855C185.826 184.764 182.078 185.769 178.263 185.77L178.261 185.773ZM1.96619 164.085C1.96619 167.483 19.2324 160.159 21.021 163.255C24.5992 169.447 14.6331 183.865 21.785 183.862C21.785 183.862 191.814 180.106 195.388 173.911C197.144 170.91 198.068 167.495 198.067 164.018C198.066 160.542 197.139 157.128 195.381 154.128L117.085 11.8305C115.362 8.81445 112.868 6.31106 109.859 4.5772C106.849 2.84334 103.433 1.94145 99.9594 1.96409C92.8108 1.96409 1.96618 160.688 1.96565 164.088L1.96619 164.085Z" fill="rgb(55,43,43)" fill-rule="nonzero" />
			<g id="Сочетание 7">
				<circle id="Эллипс 12" cx="100.5" cy="111.5" r="37.5" fill="rgb(241,186,10)" />
				<path id="Форма 110" d="M98.5982 118.857L98.286 92.5507L103.594 92.5507L103.256 118.857L98.5982 118.857ZM100.966 129.883C100.504 129.89 100.045 129.803 99.6172 129.626C99.1898 129.449 98.8032 129.187 98.4811 128.855C98.0458 128.422 97.7326 127.881 97.5732 127.288C97.4138 126.695 97.4138 126.07 97.5732 125.477C97.7326 124.884 98.0458 124.344 98.4811 123.911C98.8032 123.579 99.1898 123.316 99.6172 123.139C100.045 122.963 100.504 122.875 100.966 122.883C101.427 122.875 101.884 122.962 102.31 123.139C102.735 123.315 103.119 123.578 103.438 123.911C103.767 124.235 104.026 124.622 104.201 125.049C104.375 125.476 104.461 125.934 104.453 126.396C104.459 126.853 104.373 127.307 104.198 127.73C104.024 128.152 103.765 128.535 103.438 128.855C103.119 129.188 102.735 129.45 102.31 129.627C101.884 129.804 101.427 129.891 100.966 129.883L100.966 129.883Z" fill="rgb(255,255,255)" fill-rule="nonzero" />
			</g>
		</g>
	</g>
</svg>
